<svg width="24" height="24" viewBox="0 0 24 24" fill="none" xmlns="http://www.w3.org/2000/svg">
<path d="M2 5.75C2 5.05859 2.55859 4.5 3.25 4.5H18.25C18.9414 4.5 19.5 5.05859 19.5 5.75C19.5 6.44141 18.9414 7 18.25 7H3.25C2.55859 7 2 6.44141 2 5.75ZM4.5 12C4.5 11.3086 5.05859 10.75 5.75 10.75H20.75C21.4414 10.75 22 11.3086 22 12C22 12.6914 21.4414 13.25 20.75 13.25H5.75C5.05859 13.25 4.5 12.6914 4.5 12ZM19.5 18.25C19.5 18.9414 18.9414 19.5 18.25 19.5H3.25C2.55859 19.5 2 18.9414 2 18.25C2 17.5586 2.55859 17 3.25 17H18.25C18.9414 17 19.5 17.5586 19.5 18.25Z" fill="#637381"/>
</svg>
