<svg width="24" height="24" viewBox="0 0 24 24" fill="none" xmlns="http://www.w3.org/2000/svg">
<path d="M2.84046 3C2.37471 3 2 3.37617 2 3.84375C2 4.31133 2.37471 4.6875 2.84046 4.6875H4.43383C4.56691 4.6875 4.68247 4.78242 4.71049 4.91602L6.51748 14.4434C6.7451 15.6387 7.78517 16.5 8.99333 16.5H19.0894C19.5551 16.5 19.9298 16.1238 19.9298 15.6562C19.9298 15.1887 19.5551 14.8125 19.0894 14.8125H8.99333C8.59061 14.8125 8.24392 14.5242 8.16688 14.127L7.97778 13.125H18.0808C19.2224 13.125 20.2205 12.3586 20.5146 11.2512L21.9504 5.89688C22.1921 5.00391 21.5197 4.125 20.5987 4.125H6.2058C5.88713 3.45 5.20776 3 4.43383 3H2.84046ZM8.16338 21C8.60919 21 9.03673 20.8222 9.35197 20.5057C9.6672 20.1893 9.8443 19.7601 9.8443 19.3125C9.8443 18.8649 9.6672 18.4357 9.35197 18.1193C9.03673 17.8028 8.60919 17.625 8.16338 17.625C7.71757 17.625 7.29002 17.8028 6.97479 18.1193C6.65955 18.4357 6.48246 18.8649 6.48246 19.3125C6.48246 19.7601 6.65955 20.1893 6.97479 20.5057C7.29002 20.8222 7.71757 21 8.16338 21V21ZM19.9298 19.3125C19.9298 18.8649 19.7527 18.4357 19.4375 18.1193C19.1223 17.8028 18.6947 17.625 18.2489 17.625C17.8031 17.625 17.3755 17.8028 17.0603 18.1193C16.7451 18.4357 16.568 18.8649 16.568 19.3125C16.568 19.7601 16.7451 20.1893 17.0603 20.5057C17.3755 20.8222 17.8031 21 18.2489 21C18.6947 21 19.1223 20.8222 19.4375 20.5057C19.7527 20.1893 19.9298 19.7601 19.9298 19.3125ZM11.8054 7.64062H15.7275C16.1127 7.64062 16.4279 7.95703 16.4279 8.34375C16.4279 8.73047 16.1127 9.04688 15.7275 9.04688H11.8054C11.4202 9.04688 11.105 8.73047 11.105 8.34375C11.105 7.95703 11.4202 7.64062 11.8054 7.64062Z" fill="#637381"/>
</svg>
