<svg width="24" height="24" viewBox="0 0 24 24" fill="none" xmlns="http://www.w3.org/2000/svg">
<path d="M15.7109 10.0859L12 13.8008L8.25391 10.0859C7.88769 9.71973 7.29453 9.71973 6.92812 10.0859C6.56172 10.4521 6.56191 11.0453 6.92812 11.4117L11.3031 15.7867C11.5195 15.9727 11.7578 16.0625 12 16.0625C12.2422 16.0625 12.4797 15.9709 12.6629 15.7879L17.0379 11.4129C17.4041 11.0466 17.4041 10.4535 17.0379 10.0871C16.6717 9.72066 16.0781 9.72266 15.7109 10.0859ZM12 2C6.47656 2 2 6.47656 2 12C2 17.5234 6.47656 22 12 22C17.5234 22 22 17.5234 22 12C22 6.47656 17.5234 2 12 2ZM12 20.125C7.51953 20.125 3.875 16.4801 3.875 12C3.875 7.51992 7.51953 3.875 12 3.875C16.4805 3.875 20.125 7.51992 20.125 12C20.125 16.4801 16.4805 20.125 12 20.125Z" fill="#637381"/>
</svg>
