<svg width="24" height="24" viewBox="0 0 24 24" fill="none" xmlns="http://www.w3.org/2000/svg">
<path d="M4.85714 2C3.28125 2 2 3.28125 2 4.85714V19.1429C2 20.7188 3.28125 22 4.85714 22H19.1429C20.7188 22 22 20.7188 22 19.1429V4.85714C22 3.28125 20.7188 2 19.1429 2H4.85714ZM6.28571 6.64286C6.28571 6.04911 6.76339 5.57143 7.35714 5.57143C13.4732 5.57143 18.4286 10.5268 18.4286 16.6429C18.4286 17.2366 17.9509 17.7143 17.3571 17.7143C16.7634 17.7143 16.2857 17.2366 16.2857 16.6429C16.2857 11.7098 12.2902 7.71429 7.35714 7.71429C6.76339 7.71429 6.28571 7.23661 6.28571 6.64286ZM6.28571 10.9286C6.28571 10.3348 6.76339 9.85714 7.35714 9.85714C11.1027 9.85714 14.1429 12.8973 14.1429 16.6429C14.1429 17.2366 13.6652 17.7143 13.0714 17.7143C12.4777 17.7143 12 17.2366 12 16.6429C12 14.0804 9.91964 12 7.35714 12C6.76339 12 6.28571 11.5223 6.28571 10.9286ZM9.14286 16.2857C9.14286 17.0759 8.50446 17.7143 7.71429 17.7143C6.92411 17.7143 6.28571 17.0759 6.28571 16.2857C6.28571 15.4955 6.92411 14.8571 7.71429 14.8571C8.50446 14.8571 9.14286 15.4955 9.14286 16.2857Z" fill="#637381"/>
</svg>
