<svg width="24" height="24" viewBox="0 0 24 24" fill="none" xmlns="http://www.w3.org/2000/svg">
<path d="M21.372 8.50908C21.497 8.84899 21.3915 9.22797 21.1219 9.47021L19.4302 11.0096C19.4732 11.3339 19.4966 11.666 19.4966 12.002C19.4966 12.338 19.4732 12.6701 19.4302 12.9943L21.1219 14.5337C21.3915 14.7759 21.497 15.1549 21.372 15.4948C21.2001 15.9598 20.993 16.4052 20.7547 16.8349L20.571 17.1514C20.3132 17.5812 20.0241 17.9875 19.7076 18.3704C19.4771 18.6517 19.0942 18.7455 18.7504 18.6361L16.5742 17.9445C16.0506 18.3469 15.4724 18.6829 14.8551 18.9369L14.3667 21.1678C14.2886 21.5233 14.0151 21.8047 13.6556 21.8633C13.1165 21.9531 12.5617 22 11.9951 22C11.4286 22 10.8738 21.9531 10.3347 21.8633C9.97521 21.8047 9.70172 21.5233 9.62358 21.1678L9.1352 18.9369C8.5179 18.6829 7.93966 18.3469 7.41612 17.9445L5.24382 18.64C4.9 18.7494 4.51711 18.6517 4.2866 18.3743C3.97013 17.9914 3.68101 17.5851 3.42315 17.1553L3.23952 16.8388C3.00119 16.4091 2.79412 15.9637 2.62221 15.4987C2.49719 15.1588 2.60268 14.7798 2.87226 14.5376L4.564 12.9982C4.52102 12.6701 4.49758 12.338 4.49758 12.002C4.49758 11.666 4.52102 11.3339 4.564 11.0096L2.87226 9.47021C2.60268 9.22797 2.49719 8.84899 2.62221 8.50908C2.79412 8.04415 3.00119 7.59875 3.23952 7.16898L3.42315 6.85251C3.68101 6.42274 3.97013 6.01641 4.2866 5.63352C4.51711 5.35222 4.9 5.25845 5.24382 5.36785L7.42003 6.05939C7.94357 5.65696 8.5218 5.32096 9.13911 5.06701L9.62749 2.8361C9.70563 2.48056 9.97912 2.19926 10.3386 2.14065C10.8777 2.04688 11.4325 2 11.999 2C12.5656 2 13.1204 2.04688 13.6595 2.13675C14.019 2.19535 14.2925 2.47666 14.3706 2.83219L14.859 5.0631C15.4763 5.31705 16.0545 5.65306 16.5781 6.05548L18.7543 5.36394C19.0981 5.25454 19.481 5.35222 19.7115 5.62962C20.028 6.0125 20.3171 6.41883 20.5749 6.8486L20.7586 7.16507C20.9969 7.59484 21.204 8.04024 21.3759 8.50518L21.372 8.50908ZM11.999 15.1276C13.7259 15.1276 15.1247 13.7289 15.1247 12.002C15.1247 10.2751 13.7259 8.87634 11.999 8.87634C10.2721 8.87634 8.87343 10.2751 8.87343 12.002C8.87343 13.7289 10.2721 15.1276 11.999 15.1276Z" fill="#637381"/>
</svg>
