<svg width="24" height="24" viewBox="0 0 24 24" fill="none" xmlns="http://www.w3.org/2000/svg">
<path d="M3.85937 13.437L10.918 19.6017C11.2109 19.8575 11.5977 20 12 20C12.4023 20 12.7891 19.8575 13.082 19.6017L20.1406 13.437C21.3281 12.4029 22 10.9521 22 9.43563V9.22368C22 6.66938 20.0273 4.49146 17.3359 4.07122C15.5547 3.7935 13.7422 4.33798 12.4688 5.52926L12 5.96777L11.5312 5.52926C10.2578 4.33798 8.44531 3.7935 6.66406 4.07122C3.97266 4.49146 2 6.66938 2 9.22368V9.43563C2 10.9521 2.67187 12.4029 3.85937 13.437Z" fill="#637381"/>
</svg>
