<svg width="24" height="24" viewBox="0 0 24 24" fill="none" xmlns="http://www.w3.org/2000/svg">
<path d="M18.8758 2C18.3563 2 17.9383 2.41799 17.9383 2.93755V4.18761H16.6882C16.1687 4.18761 15.7507 4.6056 15.7507 5.12515C15.7507 5.64471 16.1687 6.0627 16.6882 6.0627H17.9383V7.31276C17.9383 7.83232 18.3563 8.25031 18.8758 8.25031C19.3954 8.25031 19.8134 7.83232 19.8134 7.31276V6.0627H21.0634C21.583 6.0627 22.001 5.64471 22.001 5.12515C22.001 4.6056 21.583 4.18761 21.0634 4.18761H19.8134V2.93755C19.8134 2.41799 19.3954 2 18.8758 2ZM12.9185 7.20338C12.3364 6.93383 11.6645 6.93383 11.0825 7.20338L2.543 11.1489C2.21095 11.3012 2 11.6333 2 12.0005C2 12.3677 2.21095 12.6997 2.543 12.8521L11.0825 16.7976C11.6645 17.0671 12.3364 17.0671 12.9185 16.7976L21.458 12.8521C21.79 12.6997 22.001 12.3677 22.001 12.0005C22.001 11.6333 21.79 11.3012 21.458 11.1489L12.9185 7.20338ZM13.442 17.9344C12.5279 18.3563 11.4731 18.3563 10.559 17.9344L4.62122 15.1921L2.543 16.1491C2.21095 16.3015 2 16.6335 2 17.0007C2 17.3679 2.21095 17.7 2.543 17.8523L11.0825 21.7978C11.6645 22.0674 12.3364 22.0674 12.9185 21.7978L21.458 17.8523C21.79 17.7 22.001 17.3679 22.001 17.0007C22.001 16.6335 21.79 16.3015 21.458 16.1491L19.3798 15.1881L13.442 17.9305V17.9344Z" fill="#637381"/>
</svg>
