<svg width="24" height="24" viewBox="0 0 24 24" fill="none" xmlns="http://www.w3.org/2000/svg">
<path d="M13.4077 2C7.89434 2 3.43005 6.47768 3.43005 12C3.43005 17.5223 7.89434 22 13.4077 22C16.1131 22 18.564 20.9196 20.3631 19.1696C20.5863 18.9509 20.6443 18.6116 20.5015 18.3348C20.3586 18.058 20.0506 17.9018 19.7426 17.9554C19.3051 18.0313 18.8586 18.0714 18.3988 18.0714C14.0729 18.0714 10.564 14.5536 10.564 10.2143C10.564 7.27679 12.1711 4.71875 14.5506 3.37054C14.8229 3.21429 14.9613 2.90179 14.8943 2.59821C14.8274 2.29464 14.5684 2.06696 14.2559 2.04018C13.9747 2.01786 13.6934 2.00446 13.4077 2.00446V2Z" fill="#637381"/>
</svg>
