<svg width="24" height="24" viewBox="0 0 24 24" fill="none" xmlns="http://www.w3.org/2000/svg">
<path d="M11.9926 16.8148C13.4246 16.8148 14.5852 17.9769 14.5852 19.4074C14.5852 20.838 13.4246 22 11.9926 22C10.5607 22 9.40002 20.838 9.40002 19.4074C9.40002 17.9769 10.5607 16.8148 11.9926 16.8148ZM11.9926 9.40741C13.4246 9.40741 14.5852 10.5694 14.5852 12C14.5852 13.4306 13.4246 14.5926 11.9926 14.5926C10.5607 14.5926 9.40002 13.4306 9.40002 12C9.40002 10.5694 10.5607 9.40741 11.9926 9.40741ZM11.9926 7.18518C10.5607 7.18518 9.40002 6.02315 9.40002 4.59259C9.40002 3.16065 10.5607 2 11.9926 2C13.4246 2 14.5852 3.16065 14.5852 4.59259C14.5852 6.02315 13.4246 7.18518 11.9926 7.18518Z" fill="#637381"/>
</svg>
