<svg width="24" height="24" viewBox="0 0 24 24" fill="none" xmlns="http://www.w3.org/2000/svg">
<path d="M11.3789 6.96094C11.0127 6.59473 10.4195 6.59473 10.0531 6.96094C9.68672 7.32715 9.68691 7.92031 10.0531 8.28672L13.8008 12L10.0887 15.7121C9.72246 16.0783 9.72246 16.6715 10.0887 17.0379C10.4549 17.4043 11.048 17.4041 11.4145 17.0379L15.7895 12.6629C15.9727 12.4805 16.0625 12.2422 16.0625 12C16.0625 11.7578 15.9709 11.5203 15.7879 11.3371L11.3789 6.96094ZM12 2C6.47656 2 2 6.47656 2 12C2 17.5234 6.47656 22 12 22C17.5234 22 22 17.5234 22 12C22 6.47656 17.5234 2 12 2ZM12 20.125C7.51953 20.125 3.875 16.4801 3.875 12C3.875 7.51992 7.51953 3.875 12 3.875C16.4805 3.875 20.125 7.51992 20.125 12C20.125 16.4801 16.4805 20.125 12 20.125Z" fill="#637381"/>
</svg>
