<svg width="24" height="24" viewBox="0 0 24 24" fill="none" xmlns="http://www.w3.org/2000/svg">
<path d="M15.524 7.87189L20.9661 8.69991C21.4168 8.76631 21.7955 9.09439 21.9394 9.54355C22.0833 9.99662 21.9659 10.4887 21.6402 10.8246L17.694 14.8163L18.6257 20.5422C18.7014 21.0109 18.5158 21.4874 18.1371 21.7647C17.7622 22.042 17.2661 22.0771 16.8609 21.8545L11.9982 19.1791L7.13932 21.8545C6.73031 22.0771 6.2342 22.042 5.85927 21.7647C5.48435 21.4874 5.29499 21.0109 5.37452 20.5422L6.30615 14.8163L2.35921 10.8246C2.03314 10.4887 1.91725 9.99662 2.06041 9.54355C2.20318 9.09439 2.58076 8.76631 3.03483 8.69991L8.47239 7.87189L10.9113 2.70339C11.112 2.27313 11.5362 2 11.9982 2C12.464 2 12.8882 2.27313 13.0889 2.70339L15.524 7.87189Z" fill="#FFC831"/>
</svg>
