<svg width="24" height="24" viewBox="0 0 24 24" fill="none" xmlns="http://www.w3.org/2000/svg">
<path d="M21.0288 20H16.7194C16.8881 19.7063 16.9881 19.3656 16.9881 19V18.75C16.9881 16.8531 16.1413 15.15 14.8069 14.0063C14.8819 14.0031 14.9538 14 15.0288 14H16.9475C19.7319 14 21.9881 16.2562 21.9881 19.0406C21.9881 19.5719 21.5569 20 21.0288 20ZM15.4881 12C14.5194 12 13.6444 11.6063 13.01 10.9719C13.6256 10.1406 13.9881 9.1125 13.9881 8C13.9881 7.1625 13.7819 6.37188 13.4163 5.67813C13.9975 5.25313 14.7131 5 15.4881 5C17.4225 5 18.9881 6.56562 18.9881 8.5C18.9881 10.4344 17.4225 12 15.4881 12Z" fill="#637381"/>
<path d="M13.01 8C13.01 10.2094 11.2194 12 9.01001 12C6.80063 12 5.01001 10.2094 5.01001 8C5.01001 5.79063 6.80063 4 9.01001 4C11.2194 4 13.01 5.79063 13.01 8ZM2.01001 19.0719C2.01001 15.9937 4.50376 13.5 7.58189 13.5H10.4381C13.5163 13.5 16.01 15.9937 16.01 19.0719C16.01 19.5844 15.5944 20 15.0819 20H2.93813C2.42563 20 2.01001 19.5844 2.01001 19.0719Z" fill="#637381"/>
</svg>
